<?xml version="1.0" encoding="utf-8"?>
<!-- Generator: Adobe Illustrator 24.0.0, SVG Export Plug-In . SVG Version: 6.00 Build 0)  -->
<svg id="Layer_1" style="enable-background:new 0 0 397.7 311.7;" version="1.1" viewBox="0 0 397.7 311.7" x="0px" xml:space="preserve"
	xmlns="http://www.w3.org/2000/svg"
	xmlns:xlink="http://www.w3.org/1999/xlink" y="0px">
	<defs>
		<linearGradient id="gradient1" x1="0%" x2="100%" y1="0%" y2="100%">
			<stop offset="0%" style="stop-color: rgba(202, 108, 230, 255); stop-opacity: 1;"/>
			<stop offset="100%" style="stop-color: rgba(0, 74, 173, 255); stop-opacity: 1;"/>
		</linearGradient>
	</defs>
	<style type="text/css">
	.st0{fill:url(#SVGID_1_);}
	.st1{fill:url(#SVGID_2_);}
	.st2{fill:url(#SVGID_3_);}
	</style>
	<linearGradient gradientTransform="matrix(1 0 0 -1 0 314)" gradientUnits="userSpaceOnUse" id="SVGID_1_" x1="360.8791" x2="141.213" y1="351.4553" y2="-69.2936">
		<stop offset="0" style="stop-color:rgba(0, 74, 173, 255)"/>
		<stop offset="1" style="stop-color:rgba(202, 108, 230, 255)"/>
	</linearGradient>
	<path class="st0" d="M64.6,237.9c2.4-2.4,5.7-3.8,9.2-3.8h317.4c5.8,0,8.7,7,4.6,11.1l-62.7,62.7c-2.4,2.4-5.7,3.8-9.2,3.8H6.5  c-5.8,0-8.7-7-4.6-11.1L64.6,237.9z" fill="url(#gradient1)"/>
	<linearGradient gradientTransform="matrix(1 0 0 -1 0 314)" gradientUnits="userSpaceOnUse" id="SVGID_2_" x1="264.8291" x2="45.163" y1="401.6014" y2="-19.1475">
		<stop offset="0" style="stop-color:rgba(0, 74, 173, 255)"/>
		<stop offset="1" style="stop-color:rgba(202, 108, 230, 255)"/>
	</linearGradient>
	<path class="st1" d="M64.6,3.8C67.1,1.4,70.4,0,73.8,0h317.4c5.8,0,8.7,7,4.6,11.1l-62.7,62.7c-2.4,2.4-5.7,3.8-9.2,3.8H6.5  c-5.8,0-8.7-7-4.6-11.1L64.6,3.8z" fill="url(#gradient1)"/>
	<linearGradient gradientTransform="matrix(1 0 0 -1 0 314)" gradientUnits="userSpaceOnUse" id="SVGID_3_" x1="312.5484" x2="92.8822" y1="376.688" y2="-44.061">
		<stop offset="0" style="stop-color:rgba(0, 74, 173, 255)"/>
		<stop offset="1" style="stop-color:rgba(202, 108, 230, 255)"/>
	</linearGradient>
	<path class="st2" d="M333.1,120.1c-2.4-2.4-5.7-3.8-9.2-3.8H6.5c-5.8,0-8.7,7-4.6,11.1l62.7,62.7c2.4,2.4,5.7,3.8,9.2,3.8h317.4  c5.8,0,8.7-7,4.6-11.1L333.1,120.1z" fill="url(#gradient1)"/>
</svg>